<mxfile host="app.diagrams.net" agent="Mozilla/5.0 (Windows NT 10.0; Win64; x64) AppleWebKit/537.36 (KHTML, like Gecko) Chrome/131.0.0.0 Safari/537.36" border="50" scale="3" compressed="false" locked="false" version="26.0.6">
  <diagram name="Blank" id="YmL12bMKpDGza6XwsDPr">
    <mxGraphModel dx="1434" dy="858" grid="0" gridSize="10" guides="1" tooltips="1" connect="1" arrows="1" fold="1" page="1" pageScale="1" pageWidth="827" pageHeight="1169" background="none" math="1" shadow="0">
      <root>
        <mxCell id="X5NqExCQtvZxIxQ7pmgY-0" />
        <mxCell id="1" parent="X5NqExCQtvZxIxQ7pmgY-0" />
        <mxCell id="NjAqU9Y5rHBkyYTPuW-a-2" value="FTP SERVERS" style="shape=step;perimeter=stepPerimeter;strokeColor=#6C8EBF;fontFamily=Helvetica;fontSize=14;fontColor=#6C8EBF;fillColor=#dae8fc;fixedSize=1;size=17;fontStyle=1;strokeWidth=2;spacingTop=0;points=[];" parent="1" vertex="1">
          <mxGeometry x="15" y="275" width="169" height="60" as="geometry" />
        </mxCell>
        <mxCell id="NjAqU9Y5rHBkyYTPuW-a-3" value="CENTRAL SERVERS" style="shape=step;perimeter=stepPerimeter;strokeColor=#82B366;fontFamily=Helvetica;fontSize=14;fontColor=#82B366;fillColor=#d5e8d4;fixedSize=1;size=17;fontStyle=1;strokeWidth=2;spacingTop=0;points=[];" parent="1" vertex="1">
          <mxGeometry x="211" y="277" width="181" height="60" as="geometry" />
        </mxCell>
        <mxCell id="NjAqU9Y5rHBkyYTPuW-a-4" value="WEB SERVERS" style="shape=step;perimeter=stepPerimeter;strokeColor=#D6B656;fontFamily=Helvetica;fontSize=14;fontColor=#D6B656;fillColor=#fff2cc;fixedSize=1;size=17;fontStyle=1;strokeWidth=2;spacingTop=0;points=[];" parent="1" vertex="1">
          <mxGeometry x="425" y="279" width="169" height="60" as="geometry" />
        </mxCell>
        <mxCell id="NjAqU9Y5rHBkyYTPuW-a-5" value="API SERVERS" style="shape=step;perimeter=stepPerimeter;strokeColor=#B85450;fontFamily=Helvetica;fontSize=14;fontColor=#B85450;fillColor=#f8cecc;fixedSize=1;size=17;fontStyle=1;strokeWidth=2;spacingTop=0;points=[];" parent="1" vertex="1">
          <mxGeometry x="633" y="277" width="169" height="60" as="geometry" />
        </mxCell>
        <mxCell id="CufCo2kyAGJHluFMc8VW-1" value="" style="whiteSpace=wrap;html=1;aspect=fixed;fillColor=#dae8fc;strokeColor=#6c8ebf;" vertex="1" parent="1">
          <mxGeometry x="13" y="346" width="159" height="159" as="geometry" />
        </mxCell>
        <mxCell id="CufCo2kyAGJHluFMc8VW-2" value="FTP 13&lt;br&gt;FTP 14&lt;br&gt;FTP 18&lt;br&gt;FTP 19" style="text;strokeColor=#6c8ebf;align=center;fillColor=#dae8fc;html=1;verticalAlign=middle;whiteSpace=wrap;rounded=0;" vertex="1" parent="1">
          <mxGeometry x="62.5" y="362" width="60" height="116" as="geometry" />
        </mxCell>
        <mxCell id="CufCo2kyAGJHluFMc8VW-4" value="" style="whiteSpace=wrap;html=1;aspect=fixed;fillColor=#d5e8d4;strokeColor=#82b366;" vertex="1" parent="1">
          <mxGeometry x="217" y="346" width="159" height="159" as="geometry" />
        </mxCell>
        <mxCell id="CufCo2kyAGJHluFMc8VW-5" value="DB04A(Primary)&lt;br&gt;&lt;br&gt;DB04B(Secondary)" style="text;strokeColor=#82b366;align=center;fillColor=#d5e8d4;html=1;verticalAlign=middle;whiteSpace=wrap;rounded=0;" vertex="1" parent="1">
          <mxGeometry x="239" y="367.5" width="115" height="116" as="geometry" />
        </mxCell>
        <mxCell id="CufCo2kyAGJHluFMc8VW-8" value="" style="whiteSpace=wrap;html=1;aspect=fixed;fillColor=#fff2cc;strokeColor=#d6b656;" vertex="1" parent="1">
          <mxGeometry x="426" y="346" width="159" height="159" as="geometry" />
        </mxCell>
        <mxCell id="CufCo2kyAGJHluFMc8VW-9" value="WEB01&lt;br&gt;&lt;br&gt;WEB02&lt;br&gt;&lt;br&gt;WEB07&lt;br&gt;&lt;br&gt;WEB08" style="text;strokeColor=#d6b656;align=center;fillColor=#fff2cc;html=1;verticalAlign=middle;whiteSpace=wrap;rounded=0;" vertex="1" parent="1">
          <mxGeometry x="448" y="371" width="115" height="116" as="geometry" />
        </mxCell>
        <mxCell id="CufCo2kyAGJHluFMc8VW-11" value="" style="whiteSpace=wrap;html=1;aspect=fixed;fillColor=#f8cecc;strokeColor=#b85450;" vertex="1" parent="1">
          <mxGeometry x="633" y="346" width="159" height="159" as="geometry" />
        </mxCell>
        <mxCell id="CufCo2kyAGJHluFMc8VW-12" value="API 07&lt;br&gt;API 08" style="text;strokeColor=#b85450;align=center;fillColor=#f8cecc;html=1;verticalAlign=middle;whiteSpace=wrap;rounded=0;" vertex="1" parent="1">
          <mxGeometry x="658.5" y="371" width="108" height="116" as="geometry" />
        </mxCell>
        <mxCell id="CufCo2kyAGJHluFMc8VW-13" value="PROCESSOR SERVERS" style="shape=step;perimeter=stepPerimeter;strokeColor=#9673a6;fontFamily=Helvetica;fontSize=14;fillColor=#e1d5e7;fixedSize=1;size=17;fontStyle=1;strokeWidth=2;spacingTop=0;points=[];" vertex="1" parent="1">
          <mxGeometry x="292" y="549" width="251" height="60" as="geometry" />
        </mxCell>
      </root>
    </mxGraphModel>
  </diagram>
</mxfile>
